<?xml version="1.0" encoding="UTF-8"?>
<svg id="Layer_2" data-name="Layer 2" xmlns="http://www.w3.org/2000/svg" viewBox="0 0 1737.78 683.85">
  <defs>
    <style>
      .cls-1 {
        stroke: #2db34a;
      }

      .cls-1, .cls-2, .cls-3 {
        fill: none;
        stroke-miterlimit: 10;
      }

      .cls-1, .cls-3 {
        stroke-linecap: round;
        stroke-width: 23px;
      }

      .cls-2 {
        stroke: #231f20;
        stroke-width: 111px;
      }

      .cls-3 {
        stroke: #5b5b61;
      }
    </style>
  </defs>
  <g id="Layer_2-2" data-name="Layer 2">
    <g>
      <path class="cls-2" d="M1408.85,331.68l61.8,13.53,49.94,24.2,80.25,51.21h13.92l17.76-16.58s19.4-25.08,38.25-11.94c7.07,4.93,10.1,11.88,11.12,18.65,1.64,10.83-1.94,21.81-9.24,29.97l-56.04,60.45c-12.79,13.8-27.96,25.18-44.78,33.61l-112.45,56.35s-8.6,2.98-14.06.78-25.56-25-25.56-25c0,0-5.12-7.68-13.23-7.99-6.31-.24-73.29,20.36-102.67,29.51-7.58,2.36-14.9,5.45-21.88,9.25-8.73,4.76-25.42,12.75-54.54,23.14-35.68,12.73-152.01-53.91-152.01-53.91,0,0-29.35-17.5-41.35-9.88-12,7.62-13.44,20.86-13.44,20.86,0,0-1.01,14.44-4.69,23.65-3.68,9.22-28.4,24.37-35.35,26.39-5.34,1.55-32.07-1.71-44.19-3.3-3.93-.52-7.77-1.5-11.46-2.92-32.57-12.54-200.45-77.29-233.23-92.15-36.34-16.47-188.56-140.3-192.59-147.88-4.03-7.58,6.14-14.34,8.65-28.28s-14.67-38.04-14.67-38.04c0,0-116.73-97.43-152.67-120.84-35.94-23.41-79.55-58.36-112.57-70.87-33.02-12.51-141.46-27.4-156.51-36.68-15.04-9.28-15.39-6.85-15.84-18.22-.45-11.37,10.34-12.92,22.97-13.26s82.35,24.21,86.94,26.48,84.8-6.18,84.8-6.18l199.5,16.48s32.79,2.03,39.02,3.45,559.93,120.91,567.05,125.51c7.12,4.6-.72,21.73,6.03,28.54,6.75,6.8,347.02,81.9,347.02,81.9Z"/>
      <g>
        <path class="cls-3" d="M1061.82,249.78c6.75,6.8,347.02,81.9,347.02,81.9"/>
        <path class="cls-3" d="M1055.8,221.25c7.12,4.6-.72,21.73,6.03,28.54"/>
        <path class="cls-3" d="M449.72,92.28s32.79,2.03,39.02,3.45,559.93,120.91,567.05,125.51"/>
        <path class="cls-3" d="M165.43,81.98c4.6,2.26,84.8-6.18,84.8-6.18l199.5,16.48"/>
        <path class="cls-3" d="M55.51,68.77c-.45-11.37,10.34-12.92,22.97-13.26s82.35,24.21,86.94,26.48"/>
        <path class="cls-3" d="M493.1,315.36s-116.73-97.43-152.67-120.84c-35.94-23.41-79.55-58.36-112.57-70.87s-141.46-27.4-156.51-36.68c-15.04-9.28-15.39-6.85-15.84-18.22"/>
        <path class="cls-3" d="M499.12,381.69c-4.03-7.58,6.14-14.34,8.65-28.28s-14.67-38.04-14.67-38.04"/>
        <path class="cls-1" d="M980.59,627.94c-5.34,1.55-32.07-1.71-44.19-3.3-3.93-.52-7.77-1.5-11.46-2.92-32.57-12.54-200.45-77.29-233.23-92.15-36.34-16.47-188.56-140.3-192.59-147.88"/>
        <path class="cls-1" d="M1034.08,557.04c-12,7.62-13.44,20.86-13.44,20.86,0,0-1.01,14.44-4.69,23.65s-28.4,24.37-35.35,26.39"/>
        <path class="cls-1" d="M1227.43,620.83c-35.68,12.73-152.01-53.91-152.01-53.91,0,0-29.35-17.5-41.35-9.88"/>
        <path class="cls-1" d="M1406.52,558.94c-6.31-.24-73.29,20.36-102.67,29.51-7.58,2.36-14.9,5.45-21.88,9.25-8.73,4.76-25.42,12.75-54.54,23.14"/>
        <path class="cls-1" d="M1445.31,591.92c-5.46-2.2-25.56-25-25.56-25,0,0-5.12-7.68-13.23-7.99"/>
        <path class="cls-1" d="M1681.89,410.75c1.64,10.83-1.94,21.81-9.24,29.97l-56.04,60.45c-12.79,13.8-27.96,25.18-44.78,33.61l-112.45,56.35s-8.6,2.98-14.06.78"/>
        <path class="cls-1" d="M1600.83,420.62h13.92l17.76-16.58s19.4-25.08,38.25-11.94c7.07,4.93,10.1,11.88,11.12,18.65"/>
        <polyline class="cls-1" points="1408.85 331.68 1470.65 345.21 1520.58 369.41 1600.83 420.62"/>
      </g>
    </g>
  </g>
</svg>