<?xml version="1.0" encoding="UTF-8"?>
<svg id="Layer_2" data-name="Layer 2" xmlns="http://www.w3.org/2000/svg" viewBox="0 0 91.91 122.74">
  <defs>
    <style>
      .cls-1 {
        fill: #000;
      }

      .cls-1, .cls-2 {
        stroke-width: 0px;
      }

      .cls-2 {
        fill: #fff;
      }
    </style>
  </defs>
  <g id="Layer_1-2" data-name="Layer 1">
    <polygon class="cls-2" points="91.91 49.04 85.36 44.14 76.01 44.74 60.11 48.14 44.21 54.44 28.31 58.94 12.41 56.94 8.51 10.34 15.63 17.94 24.41 14.64 40.41 11.14 56.31 4.84 72.21 .44 88.11 2.44 91.91 49.04"/>
    <g>
      <path class="cls-1" d="M42.91,40.04c-6.3,2.4-9.5,3.6-15.9,4.1-.5-5.9-.8-8.9-1.3-14.8,6.3-.4,9.5-1.4,15.9-3.8.5,5.9.8,8.8,1.3,14.5Z"/>
      <path class="cls-1" d="M60.11,48.14c-6.3,2.2-9.5,3.8-15.9,6.3-.5-5.8-.8-8.6-1.3-14.4,6.3-2.4,9.5-4,15.9-6.3.6,5.7.8,8.6,1.3,14.4Z"/>
      <path class="cls-1" d="M91.91,49.04c-6.3-3.9-9.5-4.4-15.9-4.3-.5-5.9-.8-8.9-1.3-14.8,6.3-.4,9.5,0,15.9,3.5.6,6.2.8,9.4,1.3,15.6Z"/>
      <path class="cls-1" d="M28.31,58.94c-6.3.8-9.5.7-15.9-2-.5-6.2-.8-9.3-1.3-15.5,6.3,3.1,9.5,3.3,15.9,2.8.6,5.9.8,8.8,1.3,14.7Z"/>
      <path class="cls-1" d="M57.61,19.24c-6.3,2.4-9.5,4-15.9,6.3-.5-5.8-.8-8.6-1.3-14.4,6.3-2.3,9.5-3.8,15.9-6.3.5,5.8.8,8.7,1.3,14.4Z"/>
      <path class="cls-1" d="M74.81,29.94c-6.3.4-9.5,1.4-15.9,3.8-.5-5.8-.8-8.6-1.3-14.4,6.3-2.4,9.5-3.6,15.9-4.1.5,5.8.8,8.8,1.3,14.7Z"/>
      <path class="cls-1" d="M89.41,17.94c-6.3-3.1-9.5-3.3-15.9-2.8-.5-5.9-.8-8.9-1.3-14.7,6.3-.8,9.5-.7,15.9,2,.5,6.2.7,9.2,1.3,15.5Z"/>
      <path class="cls-1" d="M25.71,29.44c-6.3.4-9.5,0-15.9-3.5-.5-6.2-.8-9.4-1.3-15.6,6.3,3.9,9.5,4.4,15.9,4.3.6,5.9.8,8.9,1.3,14.8Z"/>
    </g>
    <path class="cls-1" d="M5.81,6.34c-.1-1.3-1.5-2.3-3.1-2.1S-.09,5.54,0,6.84l8.9,113.2c.1,1.6,1.5,2.8,3.1,2.7,1.6-.1,2.8-1.5,2.7-3.1L5.81,6.34Z"/>
  </g>
</svg>