<?xml version="1.0" encoding="UTF-8"?>
<svg id="Layer_2" data-name="Layer 2" xmlns="http://www.w3.org/2000/svg" viewBox="0 0 1500 1500">
  <defs>
    <style>
      .cls-1 {
        fill: none;
        stroke: #34454e;
        stroke-miterlimit: 10;
        stroke-width: .5px;
      }
    </style>
  </defs>
  <g id="Layer_1-2" data-name="Layer 1">
    <path class="cls-1" d="M6,750V0M12,0v750M18,0v750M24,0v750M30,0v750M36,0v750M42,0v750M48,0v750M54,0v750M60,0v750M66,0v750M72,0v750M78,0v750M84,0v750M90,0v750M96,0v750M102,0v750M108,0v750M114,0v750M120,0v750M126,0v750M132,0v750M138,0v750M144,0v750M150,0v750M156,0v750M162,0v750M168,0v750M174,0v750M180,0v750M186,0v750M192,0v750M198,0v750M204,0v750M210,0v750M216,0v750M222,0v750M228,0v750M234,0v750M240,0v750M246,0v750M252,0v750M258,0v750M264,0v750M270,0v750M276,0v750M282,0v750M288,0v750M294,0v750M300,0v750M306,0v750M312,0v750M318,0v750M324,0v750M330,0v750M336,0v750M342,0v750M348,0v750M354,0v750M360,0v750M366,0v750M372,0v750M378,0v750M384,0v750M390,0v750M396,0v750M402,0v750M408,0v750M414,0v750M420,0v750M426,0v750M432,0v750M438,0v750M444,0v750M450,0v750M456,0v750M462,0v750M468,0v750M474,0v750M480,0v750M486,0v750M492,0v750M498,0v750M504,0v750M510,0v750M516,0v750M522,0v750M528,0v750M534,0v750M540,0v750M546,0v750M552,0v750M558,0v750M564,0v750M570,0v750M576,0v750M582,0v750M588,0v750M594,0v750M600,0v750M606,0v750M612,0v750M618,0v750M624,0v750M630,0v750M636,0v750M642,0v750M648,0v750M654,0v750M660,0v750M666,0v750M672,0v750M678,0v750M684,0v750M690,0v750M696,0v750M702,0v750M708,0v750M714,0v750M720,0v750M726,0v750M732,0v750M738,0v750M744,0v750M750,600H0M750,606H0M750,612H0M750,618H0M750,624H0M750,630H0M750,636H0M750,642H0M750,648H0M750,654H0M750,660H0M750,666H0M750,672H0M750,678H0M750,684H0M750,690H0M750,696H0M750,702H0M750,708H0M750,714H0M750,720H0M750,726H0M750,732H0M750,738H0M750,744H0M750,750H0M750,594H0M750,588H0M750,582H0M750,576H0M750,570H0M750,564H0M750,558H0M750,552H0M750,546H0M750,540H0M750,534H0M750,528H0M750,522H0M750,516H0M750,510H0M750,504H0M750,498H0M750,492H0M750,486H0M750,480H0M750,474H0M750,468H0M750,462H0M750,456H0M750,450H0M750,444H0M750,438H0M750,432H0M750,426H0M750,420H0M750,414H0M750,408H0M750,402H0M750,396H0M750,390H0M750,384H0M750,378H0M750,372H0M750,366H0M750,360H0M750,354H0M750,348H0M750,342H0M750,336H0M750,330H0M750,324H0M750,318H0M750,312H0M750,306H0M750,300H0M750,294H0M750,288H0M750,282H0M750,276H0M750,270H0M750,264H0M750,258H0M750,252H0M750,246H0M750,240H0M750,234H0M750,228H0M750,222H0M750,216H0M750,210H0M750,204H0M750,198H0M750,192H0M750,186H0M750,180H0M750,174H0M750,168H0M750,162H0M750,156H0M750,150H0M750,144H0M750,138H0M750,132H0M750,126H0M750,120H0M750,114H0M750,108H0M750,102H0M750,96H0M750,90H0M750,84H0M750,78H0M750,72H0M750,66H0M750,60H0M750,54H0M750,48H0M750,42H0M750,36H0M750,30H0M750,24H0M750,18H0M750,12H0M750,6H0M750,750V0M756,0v750M762,750V0M768,750V0M774,750V0M780,750V0M786,750V0M792,750V0M798,750V0M804,750V0M810,750V0M816,750V0M822,750V0M828,750V0M834,750V0M840,750V0M846,750V0M852,750V0M858,750V0M864,750V0M870,750V0M876,750V0M882,750V0M888,750V0M894,750V0M900,750V0M906,750V0M912,750V0M918,750V0M924,750V0M930,750V0M936,750V0M942,750V0M948,750V0M954,750V0M960,750V0M966,750V0M972,750V0M978,750V0M984,750V0M990,750V0M996,750V0M1002,750V0M1008,750V0M1014,750V0M1020,750V0M1026,750V0M1032,750V0M1038,750V0M1044,750V0M1050,750V0M1056,750V0M1062,750V0M1068,750V0M1074,750V0M1080,750V0M1086,750V0M1092,750V0M1098,750V0M1104,750V0M1110,750V0M1116,750V0M1122,750V0M1128,750V0M1134,750V0M1140,750V0M1146,750V0M1152,750V0M1158,750V0M1164,750V0M1170,750V0M1176,750V0M1182,750V0M1188,750V0M1194,750V0M1200,750V0M1206,750V0M1212,750V0M1218,750V0M1224,750V0M1230,750V0M1236,750V0M1242,750V0M1248,750V0M1254,750V0M1260,750V0M1266,750V0M1272,750V0M1278,750V0M1284,750V0M1290,750V0M1296,750V0M1302,750V0M1308,750V0M1314,750V0M1320,750V0M1326,750V0M1332,750V0M1338,750V0M1344,750V0M1350,750V0M1356,750V0M1362,750V0M1368,750V0M1374,750V0M1380,750V0M1386,750V0M1392,750V0M1398,750V0M1404,750V0M1410,750V0M1416,750V0M1422,750V0M1428,750V0M1434,750V0M1440,750V0M1446,750V0M1452,750V0M1458,750V0M1464,750V0M1470,750V0M1476,750V0M1482,750V0M1488,750V0M1494,750V0M1500,600h-750M1500,606h-750M1500,612h-750M1500,618h-750M1500,624h-750M1500,630h-750M1500,636h-750M1500,642h-750M1500,648h-750M1500,654h-750M1500,660h-750M1500,666h-750M1500,672h-750M1500,678h-750M1500,684h-750M1500,690h-750M1500,696h-750M1500,702h-750M1500,708h-750M1500,714h-750M1500,720h-750M1500,726h-750M1500,732h-750M1500,738h-750M1500,744h-750M1500,594h-750M1500,588h-750M1500,582h-750M1500,576h-750M1500,570h-750M1500,564h-750M1500,558h-750M1500,552h-750M1500,546h-750M1500,540h-750M1500,534h-750M1500,528h-750M1500,522h-750M1500,516h-750M1500,510h-750M1500,504h-750M1500,498h-750M1500,492h-750M1500,486h-750M1500,480h-750M1500,474h-750M1500,468h-750M1500,462h-750M1500,456h-750M1500,450h-750M1500,444h-750M1500,438h-750M1500,432h-750M1500,426h-750M1500,420h-750M1500,414h-750M1500,408h-750M1500,402h-750M1500,396h-750M1500,390h-750M1500,384h-750M1500,378h-750M1500,372h-750M1500,366h-750M1500,360h-750M1500,354h-750M1500,348h-750M1500,342h-750M1500,336h-750M1500,330h-750M1500,324h-750M1500,318h-750M1500,312h-750M1500,306h-750M1500,300h-750M1500,294h-750M1500,288h-750M1500,282h-750M1500,276h-750M1500,270h-750M1500,264h-750M1500,258h-750M1500,252h-750M1500,246h-750M1500,240h-750M1500,234h-750M1500,228h-750M1500,222h-750M1500,216h-750M1500,210h-750M1500,204h-750M1500,198h-750M1500,192h-750M1500,186h-750M1500,180h-750M1500,174h-750M1500,168h-750M1500,162h-750M1500,156h-750M1500,150h-750M1500,144h-750M1500,138h-750M1500,132h-750M1500,126h-750M1500,120h-750M1500,114h-750M1500,108h-750M1500,102h-750M1500,96h-750M1500,90h-750M1500,84h-750M1500,78h-750M1500,72h-750M1500,66h-750M1500,60h-750M1500,54h-750M1500,48h-750M1500,42h-750M1500,36h-750M1500,30h-750M1500,24h-750M1500,18h-750M1500,12h-750M1500,6h-750M1500,750h-750M6,1500v-750M12,750v750M18,750v750M24,750v750M30,750v750M36,750v750M42,750v750M48,750v750M54,750v750M60,750v750M66,750v750M72,750v750M78,750v750M84,750v750M90,750v750M96,750v750M102,750v750M108,750v750M114,750v750M120,750v750M126,750v750M132,750v750M138,750v750M144,750v750M150,750v750M156,750v750M162,750v750M168,750v750M174,750v750M180,750v750M186,750v750M192,750v750M198,750v750M204,750v750M210,750v750M216,750v750M222,750v750M228,750v750M234,750v750M240,750v750M246,750v750M252,750v750M258,750v750M264,750v750M270,750v750M276,750v750M282,750v750M288,750v750M294,750v750M300,750v750M306,750v750M312,750v750M318,750v750M324,750v750M330,750v750M336,750v750M342,750v750M348,750v750M354,750v750M360,750v750M366,750v750M372,750v750M378,750v750M384,750v750M390,750v750M396,750v750M402,750v750M408,750v750M414,750v750M420,750v750M426,750v750M432,750v750M438,750v750M444,750v750M450,750v750M456,750v750M462,750v750M468,750v750M474,750v750M480,750v750M486,750v750M492,750v750M498,750v750M504,750v750M510,750v750M516,750v750M522,750v750M528,750v750M534,750v750M540,750v750M546,750v750M552,750v750M558,750v750M564,750v750M570,750v750M576,750v750M582,750v750M588,750v750M594,750v750M600,750v750M606,750v750M612,750v750M618,750v750M624,750v750M630,750v750M636,750v750M642,750v750M648,750v750M654,750v750M660,750v750M666,750v750M672,750v750M678,750v750M684,750v750M690,750v750M696,750v750M702,750v750M708,750v750M714,750v750M720,750v750M726,750v750M732,750v750M738,750v750M744,750v750M750,1500v-750M750,900H0M750,894H0M750,888H0M750,882H0M750,876H0M750,870H0M750,864H0M750,858H0M750,852H0M750,846H0M750,840H0M750,834H0M750,828H0M750,822H0M750,816H0M750,810H0M750,804H0M750,798H0M750,792H0M750,786H0M750,780H0M750,774H0M750,768H0M750,762H0M750,756H0M750,906H0M750,912H0M750,918H0M750,924H0M750,930H0M750,936H0M750,942H0M750,948H0M750,954H0M750,960H0M750,966H0M750,972H0M750,978H0M750,984H0M750,990H0M750,996H0M750,1002H0M750,1008H0M750,1014H0M750,1020H0M750,1026H0M750,1032H0M750,1038H0M750,1044H0M750,1050H0M750,1056H0M750,1062H0M750,1068H0M750,1074H0M750,1080H0M750,1086H0M750,1092H0M750,1098H0M750,1104H0M750,1110H0M750,1116H0M750,1122H0M750,1128H0M750,1134H0M750,1140H0M750,1146H0M750,1152H0M750,1158H0M750,1164H0M750,1170H0M750,1176H0M750,1182H0M750,1188H0M750,1194H0M750,1200H0M750,1206H0M750,1212H0M750,1218H0M750,1224H0M750,1230H0M750,1236H0M750,1242H0M750,1248H0M750,1254H0M750,1260H0M750,1266H0M750,1272H0M750,1278H0M750,1284H0M750,1290H0M750,1296H0M750,1302H0M750,1308H0M750,1314H0M750,1320H0M750,1326H0M750,1332H0M750,1338H0M750,1344H0M750,1350H0M750,1356H0M750,1362H0M750,1368H0M750,1374H0M750,1380H0M750,1386H0M750,1392H0M750,1398H0M750,1404H0M750,1410H0M750,1416H0M750,1422H0M750,1428H0M750,1434H0M750,1440H0M750,1446H0M750,1452H0M750,1458H0M750,1464H0M750,1470H0M750,1476H0M750,1482H0M750,1488H0M750,1494H0M756,750v750M762,1500v-750M768,1500v-750M774,1500v-750M780,1500v-750M786,1500v-750M792,1500v-750M798,1500v-750M804,1500v-750M810,1500v-750M816,1500v-750M822,1500v-750M828,1500v-750M834,1500v-750M840,1500v-750M846,1500v-750M852,1500v-750M858,1500v-750M864,1500v-750M870,1500v-750M876,1500v-750M882,1500v-750M888,1500v-750M894,1500v-750M900,1500v-750M906,1500v-750M912,1500v-750M918,1500v-750M924,1500v-750M930,1500v-750M936,1500v-750M942,1500v-750M948,1500v-750M954,1500v-750M960,1500v-750M966,1500v-750M972,1500v-750M978,1500v-750M984,1500v-750M990,1500v-750M996,1500v-750M1002,1500v-750M1008,1500v-750M1014,1500v-750M1020,1500v-750M1026,1500v-750M1032,1500v-750M1038,1500v-750M1044,1500v-750M1050,1500v-750M1056,1500v-750M1062,1500v-750M1068,1500v-750M1074,1500v-750M1080,1500v-750M1086,1500v-750M1092,1500v-750M1098,1500v-750M1104,1500v-750M1110,1500v-750M1116,1500v-750M1122,1500v-750M1128,1500v-750M1134,1500v-750M1140,1500v-750M1146,1500v-750M1152,1500v-750M1158,1500v-750M1164,1500v-750M1170,1500v-750M1176,1500v-750M1182,1500v-750M1188,1500v-750M1194,1500v-750M1200,1500v-750M1206,1500v-750M1212,1500v-750M1218,1500v-750M1224,1500v-750M1230,1500v-750M1236,1500v-750M1242,1500v-750M1248,1500v-750M1254,1500v-750M1260,1500v-750M1266,1500v-750M1272,1500v-750M1278,1500v-750M1284,1500v-750M1290,1500v-750M1296,1500v-750M1302,1500v-750M1308,1500v-750M1314,1500v-750M1320,1500v-750M1326,1500v-750M1332,1500v-750M1338,1500v-750M1344,1500v-750M1350,1500v-750M1356,1500v-750M1362,1500v-750M1368,1500v-750M1374,1500v-750M1380,1500v-750M1386,1500v-750M1392,1500v-750M1398,1500v-750M1404,1500v-750M1410,1500v-750M1416,1500v-750M1422,1500v-750M1428,1500v-750M1434,1500v-750M1440,1500v-750M1446,1500v-750M1452,1500v-750M1458,1500v-750M1464,1500v-750M1470,1500v-750M1476,1500v-750M1482,1500v-750M1488,1500v-750M1494,1500v-750M1500,900h-750M1500,894h-750M1500,888h-750M1500,882h-750M1500,876h-750M1500,870h-750M1500,864h-750M1500,858h-750M1500,852h-750M1500,846h-750M1500,840h-750M1500,834h-750M1500,828h-750M1500,822h-750M1500,816h-750M1500,810h-750M1500,804h-750M1500,798h-750M1500,792h-750M1500,786h-750M1500,780h-750M1500,774h-750M1500,768h-750M1500,762h-750M1500,756h-750M1500,906h-750M1500,912h-750M1500,918h-750M1500,924h-750M1500,930h-750M1500,936h-750M1500,942h-750M1500,948h-750M1500,954h-750M1500,960h-750M1500,966h-750M1500,972h-750M1500,978h-750M1500,984h-750M1500,990h-750M1500,996h-750M1500,1002h-750M1500,1008h-750M1500,1014h-750M1500,1020h-750M1500,1026h-750M1500,1032h-750M1500,1038h-750M1500,1044h-750M1500,1050h-750M1500,1056h-750M1500,1062h-750M1500,1068h-750M1500,1074h-750M1500,1080h-750M1500,1086h-750M1500,1092h-750M1500,1098h-750M1500,1104h-750M1500,1110h-750M1500,1116h-750M1500,1122h-750M1500,1128h-750M1500,1134h-750M1500,1140h-750M1500,1146h-750M1500,1152h-750M1500,1158h-750M1500,1164h-750M1500,1170h-750M1500,1176h-750M1500,1182h-750M1500,1188h-750M1500,1194h-750M1500,1200h-750M1500,1206h-750M1500,1212h-750M1500,1218h-750M1500,1224h-750M1500,1230h-750M1500,1236h-750M1500,1242h-750M1500,1248h-750M1500,1254h-750M1500,1260h-750M1500,1266h-750M1500,1272h-750M1500,1278h-750M1500,1284h-750M1500,1290h-750M1500,1296h-750M1500,1302h-750M1500,1308h-750M1500,1314h-750M1500,1320h-750M1500,1326h-750M1500,1332h-750M1500,1338h-750M1500,1344h-750M1500,1350h-750M1500,1356h-750M1500,1362h-750M1500,1368h-750M1500,1374h-750M1500,1380h-750M1500,1386h-750M1500,1392h-750M1500,1398h-750M1500,1404h-750M1500,1410h-750M1500,1416h-750M1500,1422h-750M1500,1428h-750M1500,1434h-750M1500,1440h-750M1500,1446h-750M1500,1452h-750M1500,1458h-750M1500,1464h-750M1500,1470h-750M1500,1476h-750M1500,1482h-750M1500,1488h-750M1500,1494h-750"/>
  </g>
</svg>