<?xml version="1.0" encoding="UTF-8"?>
<svg id="Layer_2" data-name="Layer 2" xmlns="http://www.w3.org/2000/svg" viewBox="0 0 1500 1500">
  <defs>
    <style>
      .cls-1 {
        fill: #fff;
        stroke-width: 0px;
      }
    </style>
  </defs>
  <g id="Layer_1-2" data-name="Layer 1">
    <path class="cls-1" d="M1476,1500h12l12-12v-12l-24,24ZM1452,1500h12l36-36v-12l-48,48ZM1428,1500h12l60-60v-12l-72,72ZM1404,1500h12l84-84v-12l-96,96ZM1380,1500h12l108-108v-12l-120,120ZM1356,1500h12l132-132v-12l-144,144ZM1332,1500h12l156-156v-12l-168,168ZM1308,1500h12l180-180v-12l-192,192ZM1284,1500h12l204-204v-12l-216,216ZM1260,1500h12l228-228v-12l-240,240ZM1236,1500h12l252-252v-12l-264,264ZM1212,1500h12l276-276v-12l-288,288ZM1188,1500h12l300-300v-12l-312,312ZM1164,1500h12l324-324v-12l-336,336ZM1140,1500h12l348-348v-12l-360,360ZM1116,1500h12l372-372v-12l-384,384ZM1092,1500h12l396-396v-12l-408,408ZM1068,1500h12l420-420v-12l-432,432ZM1044,1500h12l444-444v-12l-456,456ZM1020,1500h12l468-468v-12l-480,480ZM996,1500h12l492-492v-12l-504,504ZM972,1500h12l516-516v-12l-528,528ZM948,1500h12l540-540v-12l-552,552ZM924,1500h12l564-564v-12l-576,576ZM900,1500h12l588-588v-12l-600,600ZM876,1500h12l612-612v-12l-624,624ZM852,1500h12l636-636v-12l-648,648ZM828,1500h12l660-660v-12l-672,672ZM804,1500h12l684-684v-12l-696,696ZM780,1500h12l708-708v-12l-720,720ZM756,1500h12l732-732v-12l-744,744ZM732,1500h12l756-756v-12l-768,768ZM708,1500h12l780-780v-12l-792,792ZM684,1500h12l804-804v-12l-816,816ZM660,1500h12l828-828v-12l-840,840ZM636,1500h12l852-852v-12l-864,864ZM612,1500h12l876-876v-12l-888,888ZM588,1500h12l900-900v-12l-912,912ZM564,1500h12l924-924v-12l-936,936ZM540,1500h12l948-948v-12l-960,960ZM516,1500h12l972-972v-12l-984,984ZM492,1500h12l996-996v-12l-1008,1008ZM468,1500h12l1020-1020v-12L468,1500ZM444,1500h12L1500,456v-12L444,1500ZM420,1500h12L1500,432v-12L420,1500ZM396,1500h12L1500,408v-12L396,1500ZM372,1500h12L1500,384v-12L372,1500ZM348,1500h12L1500,360v-12L348,1500ZM324,1500h12L1500,336v-12L324,1500ZM300,1500h12L1500,312v-12L300,1500ZM276,1500h12L1500,288v-12L276,1500ZM252,1500h12L1500,264v-12L252,1500ZM228,1500h12L1500,240v-12L228,1500ZM204,1500h12L1500,216v-12L204,1500ZM180,1500h12L1500,192v-12L180,1500ZM156,1500h12L1500,168v-12L156,1500ZM132,1500h12L1500,144v-12L132,1500ZM108,1500h12L1500,120v-12L108,1500ZM84,1500h12L1500,96v-12L84,1500ZM60,1500h12L1500,72v-12L60,1500ZM36,1500h12L1500,48v-12L36,1500ZM12,1500h12L1500,24v-12L12,1500ZM0,0v12L12,0H0ZM24,0L0,24v12L36,0h-12ZM48,0L0,48v12L60,0h-12ZM72,0L0,72v12L84,0h-12ZM96,0L0,96v12L108,0h-12ZM120,0L0,120v12L132,0h-12ZM144,0L0,144v12L156,0h-12ZM168,0L0,168v12L180,0h-12ZM192,0L0,192v12L204,0h-12ZM216,0L0,216v12L228,0h-12ZM240,0L0,240v12L252,0h-12ZM264,0L0,264v12L276,0h-12ZM288,0L0,288v12L300,0h-12ZM312,0L0,312v12L324,0h-12ZM336,0L0,336v12L348,0h-12ZM360,0L0,360v12L372,0h-12ZM384,0L0,384v12L396,0h-12ZM408,0L0,408v12L420,0h-12ZM432,0L0,432v12L444,0h-12ZM456,0L0,456v12L468,0h-12ZM480,0L0,480v12L492,0h-12ZM504,0L0,504v12L516,0h-12ZM528,0L0,528v12L540,0h-12ZM552,0L0,552v12L564,0h-12ZM576,0L0,576v12L588,0h-12ZM600,0L0,600v12L612,0h-12ZM624,0L0,624v12L636,0h-12ZM648,0L0,648v12L660,0h-12ZM672,0L0,672v12L684,0h-12ZM696,0L0,696v12L708,0h-12ZM720,0L0,720v12L732,0h-12ZM744,0L0,744v12L756,0h-12ZM768,0L0,768v12L780,0h-12ZM792,0L0,792v12L804,0h-12ZM816,0L0,816v12L828,0h-12ZM840,0L0,840v12L852,0h-12ZM864,0L0,864v12L876,0h-12ZM888,0L0,888v12L900,0h-12ZM912,0L0,912v12L924,0h-12ZM936,0L0,936v12L948,0h-12ZM960,0L0,960v12L972,0h-12ZM984,0L0,984v12L996,0h-12ZM1008,0L0,1008v12L1020,0h-12ZM1032,0L0,1032v12L1044,0h-12ZM1056,0L0,1056v12L1068,0h-12ZM1080,0L0,1080v12L1092,0h-12ZM1104,0L0,1104v12L1116,0h-12ZM1128,0L0,1128v12L1140,0h-12ZM1152,0L0,1152v12L1164,0h-12ZM1176,0L0,1176v12L1188,0h-12ZM1200,0L0,1200v12L1212,0h-12ZM1224,0L0,1224v12L1236,0h-12ZM1248,0L0,1248v12L1260,0h-12ZM1272,0L0,1272v12L1284,0h-12ZM1296,0L0,1296v12L1308,0h-12ZM1320,0L0,1320v12L1332,0h-12ZM1344,0L0,1344v12L1356,0h-12ZM1368,0L0,1368v12L1380,0h-12ZM1392,0L0,1392v12L1404,0h-12ZM1416,0L0,1416v12L1428,0h-12ZM1440,0L0,1440v12L1452,0h-12ZM1464,0L0,1464v12L1476,0h-12ZM1488,0L0,1488v12L1500,0h-12Z"/>
  </g>
</svg>