<?xml version="1.0" encoding="UTF-8"?>
<svg id="Layer_2" data-name="Layer 2" xmlns="http://www.w3.org/2000/svg" viewBox="0 0 110.37 23">
  <defs>
    <style>
      .cls-1 {
        fill: #ff1800;
        stroke-width: 0px;
      }
    </style>
  </defs>
  <g id="Layer_1-2" data-name="Layer 1">
    <path class="cls-1" d="M86.74,0c-9.16,0-10.58.74-13.5,3.69l-8.2,8.33h13.72l1.92-1.96c.89-.89,1.63-1.14,4-1.14h16.96L110.37,0h-23.63ZM77.65,23c9.16,0,10.58-.74,13.5-3.69l8.62-8.06h-13.72l-1.89,2.04c-.85.85-2.09.79-4.46.79h-16.96l-8.73,8.92h23.63ZM0,22.93L15.73,7.2C21.43,1.5,24.51.43,35.24.43h38.54l-7.82,7.67h-29.04c-7.91,0-9.95.63-13.85,4.5l-10.4,10.34H0ZM37.7,10.23c-7.91,0-9.44.36-13.01,3.93l-8.72,8.78h11.75l2.79-2.85c1.65-1.71,2.34-2.13,6.26-2.13h19.21l7.82-7.73h-26.1ZM96.5,19.19h3.04v.57h-1.19v3.18h-.66v-3.18h-1.19v-.57ZM100.15,19.19h.92l1.04,2.93h.01l1.01-2.93h.92v3.75h-.63v-2.9h0l-1.04,2.9h-.54l-1.04-2.9h-.01v2.9h-.62v-3.75Z"/>
  </g>
</svg>