<?xml version="1.0" encoding="UTF-8"?>
<svg id="Layer_2" data-name="Layer 2" xmlns="http://www.w3.org/2000/svg" viewBox="0 0 100.19 511.89">
  <defs>
    <style>
      .cls-1 {
        fill: #ff1800;
        stroke-width: 0px;
      }
    </style>
  </defs>
  <g id="Layer_1-2" data-name="Layer 1">
    <path class="cls-1" d="M93.75,57.19v-5.21h.97v2.05h5.46v1.13h-5.46v2.04h-.97ZM93.75,51v-1.59l5.04-1.78v-.02l-5.04-1.73v-1.57h6.44v1.07h-4.97v.02l4.97,1.78v.93l-4.97,1.79v.02h4.97v1.07h-6.44ZM37.64,191.69L0,154.05v193.62c0,57.36,3.78,71.46,33,100.68l63.55,63.55v-57.36l-42.15-42.41c-13.02-13.02-16.76-19.59-16.76-55.95v-164.49ZM40.99,352.31c0,38.41,3.09,44.34,15.47,56.59l40.09,39.7v-57.49l-13.41-13.41c-3.74-3.74-4.77-6.83-4.77-16.76v-129.17l-37.38-36.61v157.14ZM.14,99.04c0,38.41,3.09,44.34,15.47,56.59l40.09,39.7v-57.49l-13.41-13.41c-3.74-3.74-4.77-6.83-4.77-16.76V36.61L.14,0v99.04ZM96.55,137.14c0-38.41-3.09-44.34-15.47-56.59l-40.09-39.7v57.49l13.41,13.41c3.74,3.74,4.77,6.83,4.77,16.76v71.07l37.38,36.61v-99.04Z"/>
  </g>
</svg>