<?xml version="1.0" encoding="UTF-8"?>
<svg id="Layer_2" data-name="Layer 2" xmlns="http://www.w3.org/2000/svg" viewBox="0 0 511.89 100.19">
  <defs>
    <style>
      .cls-1 {
        fill: #ff1800;
        stroke-width: 0px;
      }
    </style>
  </defs>
  <g id="Layer_1-2" data-name="Layer 1">
    <path class="cls-1" d="M454.7,93.75h5.21v.97h-2.05v5.46h-1.13v-5.46h-2.04v-.97ZM460.89,93.75h1.59l1.78,5.04h.02l1.73-5.04h1.57v6.44h-1.07v-4.97h-.02l-1.78,4.97h-.93l-1.79-4.97h-.02v4.97h-1.07v-6.44ZM320.21,37.64L357.85,0h-193.62c-57.36,0-71.46,3.78-100.68,33L0,96.55h57.36l42.41-42.15c13.02-13.02,19.59-16.76,55.95-16.76h164.49ZM159.59,40.99c-38.41,0-44.34,3.09-56.59,15.47l-39.7,40.09h57.49l13.41-13.41c3.74-3.74,6.83-4.77,16.76-4.77h129.17l36.61-37.38h-157.14ZM412.85.14c-38.41,0-44.34,3.09-56.59,15.47l-39.7,40.09h57.49l13.41-13.41c3.74-3.74,6.83-4.77,16.76-4.77h71.07L511.89.14h-99.04ZM374.75,96.55c38.41,0,44.34-3.09,56.59-15.47l39.7-40.09h-57.49l-13.41,13.41c-3.74,3.74-6.83,4.77-16.76,4.77h-71.07l-36.61,37.38h99.04Z"/>
  </g>
</svg>