<?xml version="1.0" encoding="UTF-8"?>
<svg id="Layer_2" data-name="Layer 2" xmlns="http://www.w3.org/2000/svg" viewBox="0 0 1667.22 620.19">
  <defs>
    <style>
      .cls-1 {
        fill: #ef0103;
      }

      .cls-1, .cls-2, .cls-3, .cls-4 {
        stroke-width: 0px;
      }

      .cls-2 {
        fill: #efc603;
      }

      .cls-3 {
        fill: #191821;
      }

      .cls-4 {
        fill: #01a8d7;
      }
    </style>
  </defs>
  <g id="Layer_2-2" data-name="Layer 2">
    <g>
      <path class="cls-3" d="M375.73,241.31c-.29-.21-.58-.43-.85-.66-15.23-12.88-31.44-24.5-47.34-36.51-45.25-34.2-93.11-64-145.06-87.13-22.37-9.96-45.97-15.37-69.67-20.54-25.16-5.5-50.38-10.72-75.55-16.21-12.93-2.82-24.06-8.62-31.45-20.18-3.44-5.38-4.6-10.54-5.13-12.91-2.1-9.37,1.13-20.13,3.49-25.45.82-1.84,8.15-12.32,19.6-17.71C34.21-.89,48.44-1,56.79,2.06c19.52,7.15,45.3,12.91,59.53,19.5,8.76,4.06,18.28,6.19,27.93,6.09,22.82-.24,49.02,1.05,87.44,1.51,12.95.15,47.45.41,92.21,4.85,17.56,1.74,77.25,4.49,139.1,13.12,83.28,11.62,186.42,40.29,186.97,40.4,17.66,3.62,308.48,70.69,368.77,83.04,6.29,1.29,12.29,3.68,17.75,7.05,5.13,3.16,8.38,10.99,8.49,11.23,1.55,3.47,3.96,9.92,8.9,13.43,8.41,5.98,240.77,50.87,325.3,77.57,62.91,19.87,101.05,34.56,133.9,53.14,18,10.18,34.8,18.41,55,32.91,2.75,1.97,6.51,1.68,8.95-.65,3.43-3.28,5.44-5.05,14.79-14.82,7.38-7.7,16.98-13.91,28.47-14.13,16.19-.31,23.61,2,32.08,10.15,5.48,5.27,14.07,13.72,14.71,29.58,1.12,27.77-4.51,33.02-14.71,45.91-32.63,41.24-30.65,42.97-68.48,67.89-45.84,30.19-129.74,79.61-141.91,83.88-13.25,4.65-27.82,3.69-40.34-2.65-13.5-6.84-24.39-19.93-34.67-21.34-7.43-1.01-93.37,20.84-95.67,22.04-13.02,6.77-20.8,16.01-35.26,22.26-18.34,7.92-27.28,9.79-47.61,11.75-15.19,1.46-26.22-.78-37.64-2.26-31.88-4.14-124.77-46.33-135.11-52.08-.92-.51-3.09-1.68-4.63-.83-1.49.83-1.64,3.17-1.72,4.12-.41,5.29-.74,10.28-2.88,15.66-4.83,12.11-14.67,29.36-28.41,35.77-45.61,21.28-74.04,14.96-107.51,3.41-120.06-41.41-185.46-69.38-245.65-103.74-22.72-12.97-65.6-41.65-99.27-71.79-6.83-6.11-33.6-30.54-72.37-60.44h0c-14.22-13.02-13.79-14.03-13.02-30.81.32-6.88,3.25-13.18,6.65-19.08,4.05-7.03,2.58-13.4-1.28-19.64-4.42-7.13-10.33-12.99-16.51-18.58-14.92-13.48-30.64-26.01-46-38.96-.28-.24-.57-.46-.87-.67l-6.48-4.53ZM495.19,297.57c1.85,6.32,2.93,12.85,2.99,19.43.02,1.76-.05,3.51-.29,5.27-.72,5.31-1.75,10.59-4.19,15.3-2.07,3.99-.73,6.03,2.33,8.55,20.93,17.23,41.7,34.66,62.57,51.96,27.66,22.94,55.7,45.25,86.94,63.4,70.83,41.15,146.56,70.82,223.9,96.82,18.13,6.1,36.49,11.49,55.76,12.73,10.97.7,21.19-1.17,30.06-8.22,2.75-2.19,4.45-4.64,4.94-8.23,1.23-9.06,2.73-18.09,6.8-26.44,4.57-9.38,11.29-16.84,20.73-22.17l.31-.15,4.62-1.87c2.88-1.17,5.87-2.01,8.93-2.53l5.8-.97.33-.03c11.57.03,21.12,3.47,30.43,7.85,22.57,10.6,45.14,21.21,67.79,31.62,14.94,6.87,29.37,14.95,45.14,19.92,26.95,8.49,52.36,6.54,75.7-10.91,10.05-7.51,21.24-13.01,33.5-16.18,18.02-4.67,36.01-9.42,54.01-14.17,11.9-3.14,42.92-10.52,45.01-10.61l5.07-.23c19.11-.85,37.68,6.99,50.09,21.55.09.1.17.2.26.3,2.01,2.37,3.88,3.42,7.21,1.96,31.67-13.83,63.75-26.73,94.41-42.82,18.77-9.85,37.31-24.77,53.24-36.11,5.99-4.26,11.53-9.11,16.56-14.48,12.26-13.09,25.44-26.34,35.89-40.42,2.78-3.75,9.16-10.24,5.57-16.35-2.24-3.81-5.57.34-6.25.98-4.25,3.97-8.63,7.84-12.69,12-2.89,2.96-5.85,5.77-8.98,8.28-10.64,8.52-25.13,10.46-37.82,5.49l-10.74-4.21c-5.86-2.3-11.52-5.08-16.92-8.33-10.04-6.03-26.79-16.11-35.42-21.56-40.1-25.35-82.72-44.09-129.49-53.91-83.44-17.53-166.65-36.2-249.88-54.71-32.51-7.23-65.35-13.05-97.38-22.33-.04-.01-.07-.02-.11-.04-4.64-2.08-5.35-2.44-8.38-6.04v-.04c-5.24-6.86-10.58-13.75-11.32-22.75-.26-3.2-1.81-4.12-4.54-4.71-13.98-2.99-27.93-6.1-41.88-9.19-97.7-21.62-195.41-43.23-293.1-64.87-67.51-14.95-135-30-202.53-44.9-29.23-6.45-59.14-6.52-88.8-8.72-38.49-2.86-77.05-4.81-115.58-6.98-16.46-.92-32.95-1.45-49.43-2.13-.7-.03-1.03.88-.45,1.29.96.67,1.97,1.17,2.99,1.64,26.25,12.22,52.12,25.21,76.63,40.63,52.04,32.73,100.88,69.89,148.13,109.13,19.16,15.91,39.32,31,52.93,52.39,3.53,5.55,6.19,11.61,8.04,17.92l.57,1.94Z"/>
      <path class="cls-3" d="M1041.6,539.91c1.88.8,3.4,4.05,5.82.36,2.95-4.52-.18-5.08-3.35-5.84-8.35-4.48-16.83-8.74-25.89-11.56-13.32-4.14-25.52,1.14-31.86,13.54-2.36,4.62-3.63,9.58-4.4,14.72-1.23,8.2-1.91,16.77-8.19,23.07-9.41,9.44-20.63,15.56-34.05,17.25-17.35,2.18-34.15-1.07-50.73-5.56-42.59-11.54-83.47-28.04-124.67-43.6-2.24-.85-4.54-3.15-6.24,1.19-1.58,4.05,1.4,4.13,3.5,4.93,17.7,6.74,35.38,13.56,53.17,20.07,28.87,10.56,57.6,21.61,87.94,27.49,16.44,3.19,33.06,5.26,49.27-.46,19.39-6.85,34.56-17.92,36.37-40.8.47-5.96,1.8-11.84,5.11-17.05,4.95-7.8,13.08-11,21.97-8.48,2.71.77,5.32,1.85,7.96,2.86,6.2,2.37,11.84,6.05,18.28,7.89Z"/>
      <path class="cls-3" d="M191.72,97.54c1.11,1.92,3.26,2.18,5.01,2.99,27.02,12.5,53.55,26.01,78.65,42.01,42.35,27.01,82.39,57.25,121.62,88.58,2.07,1.66,3.93,4.83,7.08.67,3.11-4.11-1.2-4.58-2.64-5.72-14.98-11.86-29.98-23.69-45.28-35.14-33.8-25.29-67.8-50.29-105.04-70.46-18.69-10.13-37.43-20.17-57.09-28.36-10.61-5.22-21.62-9.4-33.02-12.51-37.69-10.3-76.18-17.1-114.26-25.65-4.39-.98-8.8-1.86-12.72-4.21-7.9-4.72-7.74-14.81.29-19.34,4.46-2.51,9.24-2.5,14.07-1.59,9.98,1.87,19.78,4.48,29.3,8.03,13.07,4.87,25.97,10.15,39.68,13.19,22.29,4.94,44.66,2.79,67.06,1.49,2.88-.17,2.29-2.21,2.51-3.92.27-2.18-.67-3.05-2.82-2.92-3.48.22-6.98.23-10.45.56-28.89,2.82-57.03.57-84.08-11.13-12.81-5.54-26.2-9.62-40.02-12.04-7.09-1.24-13.91-.88-20.11,3.35-10.65,7.27-10.72,22.14-.12,29.39,4.21,2.88,9.01,4.24,13.88,5.3,20.62,4.47,41.26,8.82,61.87,13.3,28.56,6.21,57.4,11.46,84.23,23.82.7.32,1.6.21,2.41.3Z"/>
      <path class="cls-3" d="M1372.69,292.8c-.3-.14-.59-.34-.91-.4-88.33-19.39-176.65-38.78-264.98-58.17-21.92-4.81-43.84-9.6-65.75-14.48-9.23-2.06-11.99-5.85-11.32-15.06.08-1.16.15-2.32.16-3.49.12-9.43-3.21-13.69-12.49-15.75-47.07-10.43-94.15-20.8-141.2-31.3-3.1-.69-4.72-.59-5.63,2.96-1.14,4.46,2.42,3.27,4.11,3.66,27.56,6.22,55.16,12.29,82.74,18.4,19.47,4.31,38.95,8.62,58.42,12.97,6.24,1.39,7.32,2.85,7.22,9.27-.02,1.16-.13,2.32-.21,3.49-.73,11.69,4.28,18.66,15.7,21.27,15.07,3.45,30.19,6.69,45.29,10.01,72.74,15.97,145.47,31.95,218.21,47.89,23.05,5.05,46.12,10.01,69.17,15.01,1.26.36,2.5.82,3.78,1.05,29.81,5.44,58.21,15.29,85.36,28.52,35.18,17.15,67.75,38.87,101.13,59.14,9.52,5.78,17.94,5.32,26.16-2.48,7-6.64,14-13.27,21.01-19.88,2.56-2.41,5.29-4.54,8.73-5.6,11.93-3.7,24.36,4.02,27.53,17.13,2.14,8.84-.28,16.94-4.9,24.26-12.56,19.91-28.16,37.42-44.23,54.51-1.68,1.78-3.23,3.03-.51,5.54,2.51,2.32,3.76,1.49,5.6-.53,11.42-12.55,22.57-25.32,32.97-38.73,7.23-9.32,14.74-18.49,17.52-30.41,3.42-14.66-2.34-29.23-14.63-36.17-9.73-5.5-23.21-5.55-35.1,7.17-5.89,6.3-12.48,11.97-18.82,17.84-5.84,5.4-10.63,5.89-17.05,1.93-8.77-5.41-17.45-10.99-26.34-16.2-26.67-15.62-52.28-33.08-80.57-45.87-27.67-12.51-56.15-22.45-86.2-27.5Z"/>
      <path class="cls-3" d="M337.25,51.5c-1.36,1.14-5-2.3-5.41,2.78-.39,4.78,2.87,3.92,5.47,4.1,24.88,1.75,49.77,3.39,74.64,5.2,16.08,1.17,32.22,1.92,48.04,5.43,79.66,17.66,159.31,35.34,238.97,52.99,43.81,9.71,87.63,19.38,131.46,28.99,1.81.4,4.31,2.43,5.16-1.9.73-3.74-1.1-4.17-3.71-4.72-4.55-.95-9.08-2.01-13.62-3.01-106.11-23.5-212.22-47.04-318.35-70.46-20.44-4.51-40.69-10.33-61.59-12.13-33.46-2.88-67.01-4.87-101.05-7.27Z"/>
      <path class="cls-3" d="M1180.32,592.23c21.53.36,43.08-5.86,62.14-20.39,8.24-6.28,17.52-10.76,27.78-13.05,6.32-1.41,12.56-3.21,18.82-4.86,23.94-6.31,47.93-12.44,71.79-19.03,9.69-2.68,17.88-1.14,25.51,5.38,4.2,3.6,7.59,7.9,11.51,11.73,7.87,7.69,16.88,11.4,27.67,7.57,16.14-5.72,31.67-12.97,47.35-19.83,1.68-.74,2.22-1.4,1.53-3.34-1.16-3.29-2.72-3.72-5.89-2.32-13.84,6.1-27.8,11.9-41.69,17.89-8.49,3.66-16.17,3.01-22.85-3.84-2.78-2.85-5.58-5.68-8.33-8.57-10.6-11.13-22.64-15.5-38.23-11.02-29.06,8.34-58.37,15.82-87.67,23.28-12.31,3.13-23.33,8.51-33.51,15.94-6.05,4.42-12.41,8.41-19.5,10.99-27.18,9.89-54.22,9.04-80.73-2.16-16.98-7.18-33.6-15.21-50.27-23.12-3.8-1.8-5.08-.56-5.77,2.89-.55,2.72,1.82,2.86,3.3,3.57,12.9,6.16,25.74,12.46,38.79,18.27,17.84,7.94,36.04,14.69,58.23,14.03Z"/>
      <path class="cls-3" d="M477.39,314.64c-.71-8.51-3.32-17.65-8.66-25.97-8.47-13.21-20.2-23.28-31.97-33.32-1.33-1.13-2.49-3.46-4.72-.63-1.87,2.37-2.23,3.77.42,5.96,6.91,5.72,13.7,11.59,19.84,18.17,14.05,15.05,25.76,34.13,11.24,58.83-5.37,9.13-3.5,14.23,4.92,21.29,27,22.63,54.07,45.17,81.18,67.67,24.19,20.07,48.71,39.69,76.2,55.21,1.92,1.08,3.53,3.19,5.59-.26,1.99-3.33.09-4.22-2.22-5.61-13.11-7.87-26.21-15.8-38.3-25.19-39.67-30.77-77.96-63.21-116.36-95.53-8.27-6.96-8.43-7.94-3.68-17.63,3.37-6.89,6.56-13.83,6.53-22.99Z"/>
      <path class="cls-2" d="M831.87,144.37c-4.55-.95-9.08-2.01-13.62-3.01-106.11-23.5-212.22-47.04-318.35-70.46-20.44-4.51-40.69-10.33-61.59-12.13-33.46-2.88-67.01-4.87-101.05-7.27l-153.14-6.82c-3.48.22-6.98.23-10.45.56-28.89,2.82-57.03.57-84.08-11.13-12.81-5.54-26.2-9.62-40.02-12.04-7.09-1.24-13.91-.88-20.11,3.35-10.65,7.27-10.72,22.14-.12,29.39,4.21,2.88,9.01,4.24,13.88,5.3,20.62,4.47,41.26,8.82,61.87,13.3,28.56,6.21,57.4,11.46,84.23,23.82.7.32,1.6.21,2.41.3.77-1.81,1.54-3.62,2.31-5.42-10.61-5.22-21.62-9.4-33.02-12.51-37.69-10.3-76.18-17.1-114.26-25.65-4.39-.98-8.8-1.86-12.72-4.21-7.9-4.72-7.74-14.81.29-19.34,4.46-2.51,9.24-2.5,14.07-1.59,9.98,1.87,19.78,4.48,29.3,8.03,13.07,4.87,25.97,10.15,39.68,13.19,22.29,4.94,44.66,2.79,67.06,1.49l152.88,6.86c24.88,1.75,49.77,3.39,74.64,5.2,16.08,1.17,32.22,1.92,48.04,5.43,79.66,17.66,159.31,35.34,238.97,52.99,43.81,9.71,87.63,19.38,131.46,28.99l44.27,9.79c27.56,6.22,55.16,12.29,82.74,18.4,19.47,4.31,38.95,8.62,58.42,12.97,6.24,1.39,7.32,2.85,7.22,9.27-.02,1.16-.13,2.32-.21,3.49-.73,11.69,4.28,18.66,15.7,21.27,15.07,3.45,30.19,6.69,45.29,10.01,72.74,15.97,145.47,31.95,218.21,47.89,23.05,5.05,46.12,10.01,69.17,15.01.48-2.09.97-4.19,1.45-6.28-.3-.14-.59-.34-.91-.4-88.33-19.39-176.65-38.78-264.98-58.17-21.92-4.81-43.84-9.6-65.75-14.48-9.23-2.06-11.99-5.85-11.32-15.06.08-1.16.15-2.32.16-3.49.12-9.43-3.21-13.69-12.49-15.75-47.07-10.43-94.15-20.8-141.2-31.3l-44.34-9.79Z"/>
      <path class="cls-1" d="M1589.31,459.74c4.37-2.69,8.37-5.97,11.86-9.74,14.16-15.3,27.72-31.09,38.88-48.79,4.62-7.31,7.03-15.42,4.9-24.26-3.17-13.1-15.6-20.82-27.53-17.13-3.44,1.07-6.18,3.19-8.73,5.6-7.01,6.62-14.01,13.25-21.01,19.88-8.22,7.8-16.64,8.26-26.16,2.48-33.38-20.27-65.95-42-101.13-59.14-27.14-13.23-55.54-23.08-85.36-28.52-1.28-.23-2.52-.7-3.78-1.05,0,0,0,0,0,0,.48-2.09.97-4.18,1.45-6.27,0,0,0,0,0,0,30.05,5.05,58.52,14.99,86.2,27.5,27.85,12.59,53.11,29.72,79.34,45.15,9.28,5.46,18.38,11.23,27.53,16.9,6.44,3.99,11.24,3.51,17.09-1.91,6.35-5.87,12.93-11.54,18.82-17.84,11.88-12.71,25.37-12.66,35.1-7.17,12.28,6.94,18.05,21.51,14.63,36.17-2.78,11.92-10.29,21.09-17.52,30.41-8.17,10.53-16.8,20.67-25.66,30.61-4.77,5.36-10.32,9.97-16.42,13.74l-118.9,73.39s0,0,0,0c-15.68,6.86-31.21,14.11-47.35,19.83-10.79,3.83-19.8.12-27.67-7.57-3.92-3.83-7.31-8.14-11.51-11.73-7.62-6.52-15.82-8.06-25.51-5.38-23.86,6.6-47.85,12.72-71.79,19.03-6.27,1.65-12.5,3.45-18.82,4.86-10.26,2.29-19.54,6.77-27.78,13.05-19.06,14.53-40.6,20.75-62.14,20.39-22.19.67-40.4-6.09-58.23-14.03-13.06-5.81-61.74-29.15-74.64-35.3-1.48-.71-3.84-.85-3.3-3.57.69-3.46,1.97-4.7,5.77-2.89,16.66,7.9,69.13,32.97,86.11,40.15,26.5,11.2,53.55,12.06,80.73,2.16,7.08-2.58,13.45-6.57,19.5-10.99,10.18-7.43,21.2-12.81,33.51-15.94,29.3-7.46,58.61-14.94,87.67-23.28,15.59-4.48,27.63-.1,38.23,11.02,2.75,2.88,5.55,5.71,8.33,8.57,6.68,6.85,14.36,7.5,22.85,3.84,13.89-5.99,27.85-11.8,41.69-17.89,0,0,0,0,0,0l120.77-74.35Z"/>
      <path class="cls-4" d="M401.44,226.07c-14.98-11.86-29.98-23.69-45.28-35.14-33.8-25.29-67.8-50.29-105.04-70.46-17.85-9.67-35.74-19.26-54.43-27.24l-2.98,6.08c.97.48,2.06.76,3.02,1.21,27.02,12.5,53.55,26.01,78.65,42.01,42.35,27.01,82.39,57.25,121.62,88.58l35.46,29.57c6.91,5.72,13.7,11.59,19.84,18.17,14.05,15.05,25.76,34.13,11.24,58.83-5.37,9.13-3.5,14.23,4.92,21.29,27,22.63,54.07,45.17,81.18,67.67,24.11,20,82.24,59.65,82.62,59.91,0,0,0,0,0,0,10.7,7.7,164.64,75.4,182.43,81.9,28.87,10.56,57.6,21.61,87.94,27.49,16.44,3.19,33.06,5.26,49.27-.46,19.39-6.85,34.56-17.92,36.37-40.8.47-5.9,1.78-11.73,5.02-16.9,4.65-7.42,13.71-11.01,22.12-8.61,2.69.77,5.29,1.84,7.9,2.84,6.04,2.31,11.55,5.86,17.78,7.74l2.32-5.69c-8.14-4.36-16.41-8.47-25.24-11.21-13.32-4.14-25.52,1.14-31.86,13.54-2.36,4.62-3.63,9.58-4.4,14.72-1.23,8.2-1.91,16.77-8.19,23.07-9.41,9.44-20.63,15.56-34.05,17.25-17.35,2.18-34.15-1.07-50.73-5.56-17.64-4.78-59.53-19.26-102.69-37.74-61.07-26.15-130.11-53.78-151.23-67.69,0,0,0,0,0,0-.24-.15-32.04-20.28-44.09-29.63-39.67-30.77-77.96-63.21-116.36-95.53-8.27-6.96-8.43-7.94-3.68-17.63,3.37-6.89,6.56-13.83,6.53-22.99,0,0,0,0,0,0-.71-8.51-3.33-17.65-8.66-25.96-8.47-13.21-20.2-23.28-31.97-33.32l-35.33-29.28Z"/>
    </g>
  </g>
</svg>