<?xml version="1.0" encoding="UTF-8"?>
<svg id="Layer_2" data-name="Layer 2" xmlns="http://www.w3.org/2000/svg" viewBox="0 0 1336.07 474.63">
  <defs>
    <style>
      .cls-1 {
        stroke: #2db34a;
      }

      .cls-1, .cls-2 {
        stroke-width: 23px;
      }

      .cls-1, .cls-2, .cls-3 {
        fill: none;
        stroke-miterlimit: 10;
      }

      .cls-2 {
        stroke: #5b5b61;
      }

      .cls-4 {
        fill: #15151e;
      }

      .cls-4, .cls-5 {
        stroke-width: 0px;
      }

      .cls-3 {
        stroke: #231f20;
        stroke-width: 111px;
      }

      .cls-5 {
        fill: #fff;
      }
    </style>
  </defs>
  <g id="Layer_1-2" data-name="Layer 1">
    <g>
      <path class="cls-3" d="M255.68,419.13c-2.5,0-4.98-.31-7.4-.95-4.13-1.09-10.32-3.38-16.16-8.05-7.28-5.82-11.38-18.52-13.07-25.01-.62-2.39-.93-4.85-.93-7.32v-25.3c0-1.29-.08-2.58-.26-3.86-.6-4.4-2.47-14.45-7.74-23.5-7-12-26-19-26-19l-73.8-30.5c-.98-.4-1.93-.85-2.85-1.36-11.48-6.31-78.5-49.11-40.35-138.13,19.5-45.5,98.5-74.5,124.5-77.5l244.08-3.13c2.98-.02,5.95.41,8.8,1.29,9.95,3.08,31.07,12.57,35.62,38.34,6,34-26.5,83.5-80,91-8.77,1.23-164.5,1.5-170.24,1.61-9.17.18-18.37,1.93-24.59,8.67-2.86,3.09-5.42,7.22-7.17,12.72-6.42,20.17,14.4,34.45,17.91,36.69.38.24.76.49,1.13.75l95.39,66.9c1.13.79,2.3,1.5,3.53,2.12,8.79,4.47,46.33,23.02,70.05,26.53,23.23,3.44,85.68,3.18,102.68,3.04,2.11-.02,15.82,1.46,33.32-12.04,16.37-12.63,9.34-48.84,9.86-52.66,1.11-8.13,3.12-21.62,5.14-28.34,2.62-8.74,14.41-23.59,17.34-27.19.47-.58.92-1.18,1.34-1.79l84.32-122.02s13-18,45-26,69,16,69,16l365.38,218.04c.86.52,1.69,1.09,2.51,1.68,2.57,1.88,10.71,6.63,24.34,3.78,16.77-3.5,27.77-20.5,24.77-44.5s-13-43-25-56-35-24-55-30-42-23-46-39-4-38,14-53c12.25-10.21,27.29-12.54,35.64-12.99,3.68-.2,7.35.33,10.83,1.51l134.53,45.49s13,5,24,17c7.99,8.71,12.81,22.69,14.85,29.7.77,2.64,1.15,5.37,1.15,8.11,0,0,.28,162.01.31,163.46.19,8.22,1.71,20.57-12.31,38.72-13.37,17.31-39.12,27.19-49.5,30.61-2.79.92-5.71,1.4-8.65,1.45l-954.29,3.93Z"/>
      <path class="cls-2" d="M1280.44,344.41c.19,8.22,1.71,20.57-12.31,38.72-13.37,17.31-39.12,27.19-49.5,30.61-2.79.92-5.71,1.4-8.65,1.45l-263.27,1.09"/>
      <path class="cls-2" d="M1240.12,126.13s13,5,24,17c7.99,8.71,12.81,22.69,14.85,29.7.77,2.64,1.15,5.37,1.15,8.11,0,0,.28,162.01.31,163.46"/>
      <path class="cls-2" d="M1045.12,145.13c-4-16-4-38,14-53,12.25-10.21,27.29-12.54,35.64-12.99,3.68-.2,7.35.33,10.83,1.51l134.53,45.49"/>
      <path class="cls-2" d="M1146.12,214.13c-12-13-35-24-55-30s-42-23-46-39"/>
      <path class="cls-2" d="M1119.5,309.17c.86.52,1.69,1.09,2.51,1.68,2.57,1.88,10.71,6.63,24.34,3.78,16.77-3.5,27.77-20.5,24.77-44.5s-13-43-25-56"/>
      <path class="cls-2" d="M640.12,101.13s13-18,45-26,69,16,69,16l365.38,218.04"/>
      <path class="cls-2" d="M532.56,288.92c-.34-4.33-.71-7.47-.57-8.45,1.11-8.13,3.12-21.62,5.14-28.34,2.62-8.74,14.41-23.59,17.34-27.19.47-.58.92-1.18,1.34-1.79l84.32-122.02"/>
      <path class="cls-2" d="M488.8,345.17c2.11-.02,15.82,1.46,33.32-12.04,12.15-9.37,11.41-31.74,10.43-44.21"/>
      <path class="cls-1" d="M316.08,315.6c8.79,4.47,46.33,23.02,70.05,26.53,23.23,3.44,85.68,3.18,102.68,3.04"/>
      <path class="cls-1" d="M219.32,188.88c-5.33,1.17-10.23,3.43-14.03,7.54-2.86,3.09-5.42,7.22-7.17,12.72-6.42,20.17,14.4,34.45,17.91,36.69.38.24.76.49,1.13.75l95.39,66.9c1.13.79,2.3,1.5,3.53,2.12"/>
      <path class="cls-1" d="M452.91,60.1c10.47,5.06,23.73,15.25,27.22,35.03,6,34-26.5,83.5-80,91-8.77,1.23-164.5,1.5-170.24,1.61-3.58.07-7.16.38-10.56,1.13"/>
      <path class="cls-1" d="M55.8,195.52c-1.31-16.88,1.57-36.62,11.32-59.39,19.5-45.5,98.5-74.5,124.5-77.5l244.08-3.13c2.98-.02,5.95.41,8.8,1.29,2.31.72,5.23,1.78,8.4,3.31"/>
      <path class="cls-1" d="M210.12,325.13c-7-12-26-19-26-19l-73.8-30.5c-.98-.4-1.93-.85-2.85-1.36-8.54-4.69-47.86-29.61-51.67-78.75"/>
      <path class="cls-1" d="M255.68,419.13c-2.5,0-4.98-.31-7.4-.95-4.13-1.09-10.32-3.38-16.16-8.05-7.28-5.82-11.38-18.52-13.07-25.01-.62-2.39-.93-4.85-.93-7.32v-25.3c0-1.29-.08-2.58-.26-3.86-.6-4.4-2.47-14.45-7.74-23.5"/>
      <line class="cls-1" x1="946.7" y1="416.28" x2="255.68" y2="419.13"/>
      <g>
        <rect class="cls-5" x="953.87" y="360.6" width="14" height="14.17" transform="translate(1333.02 -591.47) rotate(90.27)"/>
        <rect class="cls-4" x="953.81" y="374.6" width="14" height="14.17" transform="translate(1346.95 -577.34) rotate(90.27)"/>
        <rect class="cls-5" x="953.74" y="388.6" width="14" height="14.17" transform="translate(1360.89 -563.21) rotate(90.27)"/>
        <rect class="cls-4" x="953.68" y="402.61" width="14" height="14.17" transform="translate(1374.83 -549.08) rotate(90.27)"/>
        <rect class="cls-5" x="953.61" y="416.61" width="14" height="14.17" transform="translate(1388.76 -534.95) rotate(90.27)"/>
        <rect class="cls-4" x="953.55" y="430.61" width="14" height="14.17" transform="translate(1402.7 -520.81) rotate(90.27)"/>
        <rect class="cls-5" x="953.48" y="444.61" width="14" height="14.17" transform="translate(1416.63 -506.68) rotate(90.27)"/>
        <rect class="cls-4" x="953.42" y="458.61" width="14" height="14.17" transform="translate(1430.57 -492.55) rotate(90.27)"/>
        <rect class="cls-4" x="939.7" y="360.54" width="14" height="14.17" transform="translate(1318.72 -577.37) rotate(90.27)"/>
        <rect class="cls-5" x="939.64" y="374.54" width="14" height="14.17" transform="translate(1332.65 -563.23) rotate(90.27)"/>
        <rect class="cls-4" x="939.57" y="388.54" width="14" height="14.17" transform="translate(1346.59 -549.1) rotate(90.27)"/>
        <rect class="cls-5" x="939.51" y="402.54" width="14" height="14.17" transform="translate(1360.52 -534.97) rotate(90.27)"/>
        <rect class="cls-4" x="939.44" y="416.54" width="14" height="14.17" transform="translate(1374.46 -520.84) rotate(90.27)"/>
        <rect class="cls-5" x="939.38" y="430.54" width="14" height="14.17" transform="translate(1388.39 -506.71) rotate(90.27)"/>
        <rect class="cls-4" x="939.31" y="444.54" width="14" height="14.17" transform="translate(1402.33 -492.58) rotate(90.27)"/>
        <rect class="cls-5" x="939.25" y="458.54" width="14" height="14.17" transform="translate(1416.27 -478.45) rotate(90.27)"/>
        <rect class="cls-5" x="926.21" y="360.47" width="14" height="14.17" transform="translate(1305.09 -563.93) rotate(90.27)"/>
        <rect class="cls-4" x="926.14" y="374.47" width="14" height="14.17" transform="translate(1319.03 -549.8) rotate(90.27)"/>
        <rect class="cls-5" x="926.08" y="388.48" width="14" height="14.17" transform="translate(1332.97 -535.67) rotate(90.27)"/>
        <rect class="cls-4" x="926.01" y="402.48" width="14" height="14.17" transform="translate(1346.9 -521.54) rotate(90.27)"/>
        <rect class="cls-5" x="925.95" y="416.48" width="14" height="14.17" transform="translate(1360.84 -507.41) rotate(90.27)"/>
        <rect class="cls-4" x="925.88" y="430.48" width="14" height="14.17" transform="translate(1374.77 -493.28) rotate(90.27)"/>
        <rect class="cls-5" x="925.82" y="444.48" width="14" height="14.17" transform="translate(1388.71 -479.15) rotate(90.27)"/>
        <rect class="cls-4" x="925.75" y="458.48" width="14" height="14.17" transform="translate(1402.64 -465.01) rotate(90.27)"/>
      </g>
      <polygon class="cls-5" points="513.9 334.06 473.79 371.8 463.07 321.85 513.9 334.06"/>
    </g>
  </g>
</svg>