<?xml version="1.0" encoding="UTF-8"?>
<svg id="Layer_2" data-name="Layer 2" xmlns="http://www.w3.org/2000/svg" viewBox="0 0 1428 324.56">
  <defs>
    <style>
      .cls-1 {
        fill: #ff1e00;
        stroke-width: 0px;
      }
    </style>
  </defs>
  <g id="Layer_1-2" data-name="Layer 1">
    <path class="cls-1" d="M1168.36,302.92h17.51v3.27h-6.88v18.36h-3.79v-18.36h-6.85v-3.27ZM1189.17,302.92h5.33l5.97,16.94h.06l5.82-16.94h5.27v21.64h-3.61v-16.7h-.06l-6,16.7h-3.12l-6-16.7h-.06v16.7h-3.61v-21.64ZM896.94,324.54L1217.59,0h210.41l-324.55,324.54h-206.51ZM1076.33,126.53L1202.85,0h-650.82c-192.82,0-240.2,12.72-338.41,110.93L0,324.54h192.82l142.56-141.69c43.77-43.76,65.86-56.33,188.06-56.33h552.9ZM536.43,137.79c-129.12,0-149.06,10.4-190.22,52l-133.46,134.76h193.25l45.06-45.06c12.57-12.57,22.96-16.03,56.33-16.03h434.17l123.06-125.66h-528.2Z"/>
  </g>
</svg>