<?xml version="1.0" encoding="UTF-8"?>
<svg id="Layer_2" data-name="Layer 2" xmlns="http://www.w3.org/2000/svg" viewBox="0 0 107.93 27">
  <defs>
    <style>
      .cls-1 {
        fill: #ff1800;
        stroke-width: 0px;
      }
    </style>
  </defs>
  <g id="Layer_1-2" data-name="Layer 1">
    <path class="cls-1" d="M0,27L18.88,8.12C25.71,1.29,29.41,0,42.28,0h46.23l-9.39,9.2h-34.84c-9.49,0-11.94.76-16.61,5.39l-12.47,12.4H0ZM45.23,11.76c-9.49,0-11.32.43-15.6,4.71l-10.46,10.53h14.09l3.34-3.42c1.98-2.05,2.8-2.55,7.51-2.55h23.04l9.38-9.28h-31.31ZM91.82,0l-27,27h16L107.93,0h-16.11ZM90.86,22.5h3.64v.68h-1.43v3.82h-.79v-3.82h-1.42v-.68ZM95.23,22.5h1.11l1.24,3.52h.01l1.21-3.52h1.1v4.5h-.75v-3.47h-.01l-1.25,3.47h-.65l-1.25-3.47h-.01v3.47h-.75v-4.5Z"/>
  </g>
</svg>