<?xml version="1.0" encoding="UTF-8"?>
<svg id="Layer_2" data-name="Layer 2" xmlns="http://www.w3.org/2000/svg" viewBox="0 0 106.37 468">
  <defs>
    <style>
      .cls-1 {
        fill: #ff1800;
        stroke-width: 0px;
      }
    </style>
  </defs>
  <g id="Layer_1-2" data-name="Layer 1">
    <path class="cls-1" d="M99.28,85.09v-5.74h1.07v2.25h6.02v1.24h-6.02v2.24h-1.07ZM99.28,78.27v-1.75l5.55-1.96v-.02l-5.55-1.91v-1.73h7.09v1.18h-5.47v.02l5.47,1.97v1.02l-5.47,1.97v.02h5.47v1.18h-7.09ZM106.36,174.04L0,68.96V0l106.36,106.36v67.68ZM41.47,115.25L0,73.79v213.29c0,63.19,4.17,78.72,36.35,110.91l70.01,70.01v-63.19l-46.44-46.72c-14.34-14.34-18.46-21.59-18.46-61.63V115.25ZM45.16,292.19c0,42.32,3.41,48.85,17.04,62.34l44.16,43.74v-63.33l-14.77-14.77c-4.12-4.12-5.26-7.53-5.26-18.46v-142.29l-41.18-40.33v173.11Z"/>
  </g>
</svg>