<?xml version="1.0" encoding="UTF-8"?>
<svg id="Layer_2" data-name="Layer 2" xmlns="http://www.w3.org/2000/svg" viewBox="0 0 27 107.93">
  <defs>
    <style>
      .cls-1 {
        fill: #ff1800;
        stroke-width: 0px;
      }
    </style>
  </defs>
  <g id="Layer_1-2" data-name="Layer 1">
    <path class="cls-1" d="M27,107.93l-18.88-18.87C1.29,82.22,0,78.52,0,65.65V19.41l9.2,9.39v34.84c0,9.49.76,11.94,5.39,16.61l12.4,12.47v15.21ZM11.76,62.7c0,9.49.43,11.32,4.71,15.6l10.54,10.46v-14.09l-3.42-3.34c-2.05-1.98-2.55-2.8-2.55-7.51v-23.04l-9.28-9.38v31.31ZM0,16.11l27,27v-16L0,0v16.11ZM22.5,17.07v-3.64h.68v1.43h3.82v.79h-3.82v1.43h-.68ZM22.5,12.7v-1.11l3.52-1.24h0s-3.52-1.22-3.52-1.22v-1.1h4.5v.75h-3.47s3.47,1.26,3.47,1.26v.65l-3.47,1.25h0s3.47.01,3.47.01v.75h-4.5Z"/>
  </g>
</svg>