<?xml version="1.0" encoding="UTF-8"?>
<svg id="Layer_2" data-name="Layer 2" xmlns="http://www.w3.org/2000/svg" viewBox="0 0 468 106.37">
  <defs>
    <style>
      .cls-1 {
        fill: #ff1800;
        stroke-width: 0px;
      }
    </style>
  </defs>
  <g id="Layer_1-2" data-name="Layer 1">
    <path class="cls-1" d="M382.91,99.28h5.74v1.07h-2.25v6.02h-1.24v-6.02h-2.24v-1.07ZM389.73,99.28h1.75l1.96,5.55h.02l1.91-5.55h1.73v7.09h-1.18v-5.47h-.02l-1.97,5.47h-1.02l-1.97-5.47h-.02v5.47h-1.18v-7.09ZM293.95,106.36L399.04,0h68.96l-106.36,106.36h-67.68ZM352.75,41.47L394.21,0h-213.3c-63.19,0-78.72,4.17-110.91,36.35L0,106.36h63.19l46.72-46.44c14.34-14.34,21.59-18.46,61.63-18.46h181.2ZM175.8,45.16c-42.32,0-48.85,3.41-62.34,17.04l-43.74,44.16h63.33l14.77-14.77c4.12-4.12,7.53-5.26,18.46-5.26h142.29l40.33-41.18h-173.11Z"/>
  </g>
</svg>