<?xml version="1.0" encoding="UTF-8"?>
<svg id="Layer_2" data-name="Layer 2" xmlns="http://www.w3.org/2000/svg" xmlns:xlink="http://www.w3.org/1999/xlink" viewBox="0 0 72 48">
  <defs>
    <style>
      .cls-1 {
        clip-path: url(#clippath);
      }

      .cls-2 {
        fill: none;
      }

      .cls-2, .cls-3 {
        stroke-width: 0px;
      }

      .cls-3 {
        fill: #fff;
      }
    </style>
    <clipPath id="clippath">
      <rect class="cls-2" width="72" height="48"/>
    </clipPath>
  </defs>
  <g id="Layer_1-2" data-name="Layer 1">
    <g class="cls-1">
      <path class="cls-3" d="M70.4,39.64c-.26-.93-.9-1.65-1.95-2.16-.34-.17-.7-.31-1.05-.46l-1.12-.49c-.58-.27-1.17-.53-1.72-.84-.54-.29-1.05-.64-1.83-1.16-.32-.21-.64-.41-.92-.67-.81-.72-1.59-1.48-2.33-2.27-1.17-1.27-2.3-2.58-3.38-3.94-.41-.52-.79-1.07-1.2-1.73l.38-.52.08-.87c.12-1.22-.46-2.13-.67-2.46-.22-.35-.48-.67-.97-1.29l-.76-1.03c-.53-.73-1.06-1.46-1.65-2.16-.8-.96-1.67-1.86-2.56-2.74-.42-.4-.87-.78-1.33-1.14l-1.04-.86c-.51-.44-1.03-.88-1.59-1.28-1.4-1-2.86-1.94-4.31-2.87l-.58-.38c-.41-.28-.76-.5-1.28-.73-.65-.29-1.02-.38-1.8-.5-.88-.17-1.8-.12-2.62.13-.71.23-1.41.65-1.98,1.16-.15-.11-.28-.21-.39-.3l-.85-.66c-.88-.7-1.77-1.38-2.73-1.95-.89-.52-1.79-.72-2.65-.86-.78-.12-1.58-.12-2.35,0-.5.09-1,.24-1.49.4-.2.06-.39.15-.6.18-.8.09-1.67.1-2.64.11-.12-.17-.26-.35-.42-.53-.79-.85-1.96-1.26-3.02-1.1-1.64.22-3.31.53-4.94.9-.8.17-1.58.44-2.46.75-.44.16-.96.36-1.5.7-.05.02-.22.08-.38.13-.52.16-1.32.41-2.16,1.06-.54.42-1,.9-1.36,1.4-.42.59-.7,1.33-.77,2.06-.08.74.04,1.53.34,2.22.23.53.79,1.5,1.84,2.01.93.47,2.12.54,3.16.14.11-.04.21-.09.31-.14l.53.52c.65.63,1.3,1.26,2,1.84.69.57,1.45,1.06,2.24,1.52.68.38,1.38.72,2.1,1.06l1.17.56c1.4.68,2.8,1.36,4.21,2.02.62.29,1.24.56,1.86.83l1.46.65c.88.4,1.74.81,2.62,1.23.24.93.8,1.7,1.6,2.15.49.28.99.59,1.49.89,1.11.67,2.24,1.35,3.39,1.91l3.17,1.54c2.41,1.18,4.83,2.36,7.24,3.51.86.41,1.71.84,2.56,1.28,1.09.56,2.18,1.12,3.27,1.62.6.28,1.23.52,1.86.74,1.16.4,2.33.78,3.51,1.14.67.2,1.34.43,2.02.66,1.1.38,2.21.76,3.33,1.04.62.16,1.25.28,1.88.39l1.42.26c.32.14.63.34.8.44.19.19.5.5.98.78.66.38,1.36.66,2.04.82.3.07.58.1.85.1.72,0,1.3-.2,1.6-.34l1.31-.78.48-1.06c.17-.38.61-1.37.28-2.54M68.12,41.28c-.16.38-.37.61-.65.73-.22.1-.48.16-.73.16-.12,0-.23-.01-.34-.04-.47-.11-.97-.32-1.46-.59-.23-.13-.4-.29-.53-.42-.07-.07-.14-.14-.19-.17-.5-.33-.9-.56-1.27-.72-.15-.06-.35-.1-.56-.15l-.25-.05c-.36-.08-.73-.15-1.1-.21-.58-.11-1.16-.21-1.73-.36-1.07-.27-2.13-.63-3.16-.98-.7-.24-1.4-.48-2.1-.69-1.15-.35-2.29-.72-3.42-1.1-.56-.2-1.12-.4-1.65-.65-1.07-.5-2.14-1.04-3.2-1.59-.87-.44-1.74-.89-2.61-1.31-2.4-1.15-4.82-2.33-7.22-3.5l-3.18-1.55c-1.1-.54-2.18-1.18-3.21-1.81-.52-.31-1.03-.62-1.54-.91-.34-.2-.55-.57-.6-1.05-.02-.25.02-.46.06-.62-.07-.06-.3-.16-.52-.25l-.3-.14c-1.01-.48-2.02-.96-3.04-1.43-.49-.22-.99-.44-1.49-.66-.6-.27-1.22-.53-1.82-.81-1.4-.65-2.79-1.32-4.18-2l-1.19-.57c-.66-.31-1.32-.62-1.94-.98-.76-.44-1.39-.86-1.93-1.31-.65-.53-1.26-1.12-1.86-1.71l-.73-.71c-.14-.13-.27-.27-.4-.41-.17-.18-.34-.36-.54-.52-.19-.05-.4.02-.62.14-.04.02-.13.11-.2.17-.17.16-.38.36-.69.49-.42.16-.97.13-1.36-.06-.45-.22-.7-.68-.82-.94-.15-.33-.2-.73-.16-1.1.03-.36.17-.72.37-1.01.23-.33.55-.65.92-.94.53-.41,1.03-.56,1.47-.7.33-.1.61-.19.9-.38.35-.22.71-.36,1.05-.48.78-.27,1.48-.52,2.2-.68,1.79-.4,3.34-.68,4.76-.86.36-.06.82.1,1.12.42.2.22.34.46.47.68.09.16.19.34.27.41.06.04.2.1.33.11,1.44.06,2.7.04,3.85-.1.33-.04.68-.16,1.05-.28.38-.13.77-.25,1.16-.32.52-.08,1.09-.09,1.64,0,.6.09,1.28.22,1.87.58.88.52,1.7,1.17,2.48,1.78.29.23.59.46.88.69.48.36,1.45,1.09,1.95,1.4.03.02.13.12.2.04.22-.08.3-.23.34-.33.17-.34.4-.62.56-.78.35-.38.85-.69,1.33-.85.46-.14,1-.17,1.52-.07l.33.06c.33.05.52.08,1,.3.39.17.64.34.94.54l.63.4c1.42.92,2.85,1.84,4.23,2.82.5.36.97.76,1.44,1.16l1.1.91c.4.32.8.64,1.17,1,.95.93,1.74,1.77,2.41,2.58.55.66,1.05,1.35,1.56,2.04.26.35.52.71.78,1.06l.28.36c.21.26.41.52.59.79.14.22.38.6.34,1.06-.04.35-.22.59-.35.74l-.19.3c-.07.11-.14.24-.16.31-.04.12-.04.24-.02.29.06.23.18.5.38.81.59.95,1.07,1.65,1.56,2.26,1.07,1.34,2.24,2.7,3.48,4.05.75.81,1.58,1.62,2.49,2.43.36.32.76.58,1.17.85l.26.17c.56.38,1.13.77,1.73,1.09.6.33,1.23.62,1.86.9l.53.24c.22.1.44.2.67.28.31.13.62.26.92.4.27.13.66.33.79.78.12.41-.05.8-.16,1.04"/>
      <path class="cls-3" d="M60.64,37.7c-.46-.31-.93-.62-1.35-.99-.94-.84-1.82-1.7-2.6-2.54-1.27-1.38-2.46-2.77-3.56-4.14-.53-.66-1.05-1.41-1.67-2.42-.28-.46-.47-.87-.57-1.26-.12-.46-.03-.9.04-1.12.08-.28.22-.52.34-.71.11-.19.18-.29.24-.37,0-.01-.02-.02-.02-.03-.14-.23-.32-.44-.49-.65l-.31-.4c-.27-.36-.54-.72-.8-1.08-.48-.66-.96-1.33-1.49-1.96-.63-.76-1.38-1.56-2.3-2.45-.33-.32-.69-.61-1.05-.9l-1.14-.95c-.43-.37-.86-.74-1.32-1.07-1.36-.96-2.77-1.87-4.17-2.78l-.65-.42c-.22-.15-.41-.28-.7-.41-.31-.14-.36-.14-.6-.18l-.38-.06c-.26-.04-.54-.04-.74.02-.22.07-.49.24-.66.42-.12.13-.22.27-.28.38-.14.26-.3.6-.61.85-.29.22-.7.37-1.1.38-.38.02-.8-.08-1.11-.28-.54-.34-1.56-1.1-2.07-1.49-.31-.23-.61-.47-.91-.71-.78-.62-1.52-1.2-2.31-1.67-.36-.21-.86-.3-1.3-.38-.38-.06-.78-.06-1.13,0-.3.05-.61.16-.91.26-.43.15-.88.3-1.38.36-1.23.13-2.57.16-4.09.1-.5-.02-1-.22-1.34-.52-.27-.24-.44-.54-.59-.8-.06-.1-.12-.21-.18-.29-1.33.18-2.78.45-4.44.82-.66.14-1.29.37-1.92.58-.36.13-.62.23-.84.36-.47.29-.9.43-1.27.55-.38.11-.67.21-.97.44-.24.19-.44.4-.58.6-.04.06-.08.17-.09.25-.01.11,0,.24.04.3.04.1.1.16.11.18.04-.03.13-.12.19-.18.14-.14.32-.3.56-.43.3-.16.76-.35,1.24-.37.54-.02.93.27,1.08.38.26.2.5.44.73.69.11.12.22.23.34.35l.75.72c.58.56,1.15,1.12,1.76,1.63.46.38,1.02.76,1.71,1.15.59.34,1.22.63,1.84.92l1.2.58c1.38.67,2.76,1.34,4.16,1.98.59.27,1.19.54,1.79.8.5.22,1.01.44,1.51.68,1.02.46,2.04.95,3.06,1.43l.26.12c.32.14.63.29.9.48.32.23.53.59.58.94.04.26-.02.48-.06.65,0,.02,0,.03-.02.04.45.26.9.54,1.36.81,1.01.61,2.05,1.24,3.08,1.74l3.18,1.54c2.4,1.17,4.81,2.34,7.21,3.49.88.43,1.77.88,2.65,1.33,1.04.54,2.09,1.07,3.14,1.56.49.23.99.42,1.5.59,1.11.38,2.23.75,3.36,1.09.72.22,1.44.46,2.16.71,1.01.35,2.02.69,3.03.95.54.13,1.08.24,1.63.33.05.01.1.02.15.03-.2-.13-.4-.26-.6-.4l-.25-.17ZM35.69,12.98h0-.01s0,0,0,0ZM51.87,33.08c-.43-.15-.87-.31-1.29-.51-1.03-.48-2.04-1-3.06-1.52-.9-.46-1.8-.92-2.7-1.36-2.39-1.14-4.8-2.32-7.2-3.49l-3.18-1.54c-.99-.48-1.95-1.07-2.9-1.65-.1-.06-.2-.12-.3-.18-.18-.84-.68-1.61-1.45-2.18-.38-.27-.82-.49-1.48-.78-1.03-.49-2.06-.98-3.1-1.45l-1.54-.68c-.58-.26-1.16-.51-1.74-.78h0c-1.38-.64-2.75-1.3-4.12-1.97l-1.22-.59c-.57-.27-1.14-.54-1.68-.84-.49-.28-.98-.59-1.4-.94-.57-.47-1.1-.99-1.63-1.51l-.65-.64c.07-.02.14-.03.21-.05.96-.22,1.94-.41,2.93-.58.1.12.21.23.34.34.72.65,1.71,1.04,2.71,1.08,1.65.07,3.1.04,4.44-.12.73-.08,1.34-.29,1.84-.46.2-.06.38-.14.57-.17.13-.03.29-.02.43,0,.38.06.52.1.53.1.72.43,1.39.97,2.07,1.5l.95.74c.55.42,1.65,1.24,2.24,1.6.7.43,1.55.65,2.35.6.85-.03,1.72-.34,2.38-.85.5-.39.81-.84.98-1.15h.03c.15.07.24.14.35.22l.69.45c1.38.89,2.76,1.77,4.08,2.72.41.29.79.62,1.17.95l1.2,1c.3.24.61.48.89.75.75.72,1.48,1.48,2.14,2.28.5.59.95,1.22,1.4,1.85l.79,1.07c-.03.09-.06.18-.09.28-.15.53-.28,1.36-.05,2.26.16.61.43,1.23.83,1.88.56.91,1.16,1.8,1.82,2.63.57.72,1.15,1.42,1.75,2.11-.43-.14-.87-.29-1.3-.44"/>
      <polygon class="cls-3" points="11.9 20.82 10.65 22.67 6.48 18.47 11.9 20.82"/>
    </g>
  </g>
</svg>