<?xml version="1.0" encoding="UTF-8"?>
<svg id="Layer_2" data-name="Layer 2" xmlns="http://www.w3.org/2000/svg" xmlns:xlink="http://www.w3.org/1999/xlink" viewBox="0 0 72 48">
  <defs>
    <style>
      .cls-1 {
        clip-path: url(#clippath);
      }

      .cls-2 {
        fill: none;
      }

      .cls-2, .cls-3 {
        stroke-width: 0px;
      }

      .cls-3 {
        fill: #fff;
      }
    </style>
    <clipPath id="clippath">
      <rect class="cls-2" width="72" height="48"/>
    </clipPath>
  </defs>
  <g id="Layer_1-2" data-name="Layer 1">
    <g class="cls-1">
      <polygon class="cls-3" points="37.74 44.21 39.46 42.79 34.91 39.01 37.74 44.21"/>
      <path class="cls-3" d="M64.35,26.65c-1.62-1.88-3.45-3.76-5.78-5.91-2.79-2.59-5.64-5.13-8.48-7.65l-2.93-2.61c-.46-.41-.8-.83-.97-1.18-.09-.18-.18-.54-.27-.89-.14-.57-.3-1.15-.52-1.68-.42-1-1.17-1.87-2.11-2.44-.92-.56-1.85-.84-2.93-.87-1.26-.02-2.14.42-2.8.73-.16.05-.32.11-.26.14-.05,0-.24-.07-.78-.4-.56-.34-1.11-.75-1.61-1.12-1.5-1.13-3.28-1.1-4.44-.68-.78.28-1.28.45-1.76.39-.71-.04-1.56-.28-2.45-.52l-1.26-.32c-1.86-.44-3.75-.71-5.47-.78-1.98-.09-3.54-.12-5.62.2-1.1.18-2.6.8-3.47,1.45-.81.6-1.86,1.84-2.16,3.37l-.19.97c-.34,1.71-.62,3.12-.87,4.98l-.28,1.97c-.34,2.36-.66,4.59-.79,7.02-.09,1.62.66,3.37,2.34,5.49,1.17,1.47,2.55,2.58,3.88,3.64l.5.4c.74.6,2.24,1.58,4.01,1.36,1.42-.16,2.79-1.08,3.48-2.35.57-1.04.72-2.44.4-3.66-.26-.95-.93-2.12-2.08-2.78,2.82-2.49,4.5-3.66,8.2-6.23.88-.61,1.86-1.29,3-2.09-.09,1.44.82,2.54,1.58,3.45.26.31.56.68.89,1.12.94,1.26,1.38,2.45,1.4,2.66-.11.62-1.06,2.52-1.39,3.04-1.86,2.52-1.94,5.2-.22,7,3.18,3.32,5.88,6.37,9.31,10.48.64.79,1.44,1.76,2.59,2.44.96.56,2.18.88,3.36.88.23,0,.46-.01.68-.04,1.32-.14,2.66-.78,3.67-1.76,1.06-1.03,1.64-2.48,1.61-4,0-.13-.01-.25-.03-.37,1.8-.88,3.43-1.72,5.16-2.66.16-.07.68-.13,1.02-.18.69-.09,1.47-.19,2.25-.48.87-.32,2.08-.95,2.95-2.16.77-1.09,1.21-2.46,1.17-3.66-.04-1.27-.62-2.7-1.5-3.72M62.89,32.76c-.42.58-1.1,1.07-1.92,1.37-.55.2-1.17.28-1.77.36-.65.08-1.32.17-1.75.4-2.12,1.15-4.19,2.2-6.92,3.52-.05.03.02.13.08.24.23.35.51.78.52,1.29.02.88-.33,1.76-.94,2.36-.65.63-1.54,1.06-2.36,1.15-.15.02-.3.02-.46.02-.79,0-1.62-.21-2.23-.57-.81-.48-1.45-1.25-2-1.94l-.26-.31c-3.22-3.86-5.96-6.94-9.16-10.3-.94-.99-.8-2.54.4-4.17.25-.36,1.6-2.84,1.79-3.99.15-.91-.61-2.74-1.82-4.34-.35-.47-.68-.86-.96-1.2-.74-.9-1.24-1.49-1.02-2.2.29-1.16,1.14-1.34,3.06-1.34,1.03-.04,1.43-.18,1.56-.25-.07-.05-.2-.28-.6-.68-2.98-2.23-3.72-2.08-5.2-1.04-2.18,1.54-3.9,2.74-5.33,3.73-4.59,3.19-6.14,4.26-10.46,8.24l-.22.14c-.06.04-.14.21-.14.29.02.07.21.31.46.4l.5.18c.54.19,1.11.39,1.61.59.65.26,1.1.97,1.26,1.55.14.56.14,1.39-.21,2.03-.35.64-1.09,1.14-1.8,1.22-.99.12-1.99-.58-2.37-.89l-.5-.41c-1.24-.99-2.52-2.02-3.54-3.3-1.31-1.65-1.92-2.96-1.86-4,.13-2.33.44-4.51.77-6.82l.28-1.99c.25-1.82.53-3.22.85-4.85l.2-.98c.18-.9.88-1.71,1.31-2.03.59-.44,1.74-.92,2.5-1.04,1.88-.29,3.27-.26,5.18-.18,1.58.07,3.33.32,5.06.72.4.09.8.2,1.2.31.96.26,1.95.52,2.87.58.92.04,1.78-.21,2.64-.51.59-.22,1.58-.24,2.38.37.57.42,1.17.87,1.8,1.25.48.3,1.04.6,1.56.69.37.06.76-.06,1.26-.2l.32-.09c.1-.03.21-.08.34-.16.32-.18.78-.44,1.44-.39.7.02,1.28.19,1.87.55.55.33.98.83,1.22,1.41.18.44.3.9.42,1.37.12.48.24.94.43,1.32.3.6.8,1.24,1.47,1.84l2.94,2.62c2.82,2.51,5.66,5.04,8.44,7.62,2.26,2.1,4.05,3.92,5.61,5.74.57.66.95,1.58.97,2.35.03.88-.38,1.78-.76,2.33"/>
      <path class="cls-3" d="M55.99,23.52c-2.77-2.57-5.6-5.09-8.42-7.59l-2.94-2.62c-.83-.75-1.45-1.53-1.84-2.32-.26-.54-.4-1.09-.54-1.63-.1-.39-.19-.78-.35-1.15-.11-.27-.31-.5-.57-.66-.3-.18-.6-.31-1.1-.32-.2.03-.36.06-.63.2-.18.1-.39.21-.65.28l-.3.08c-.6.18-1.24.38-1.96.25-.79-.13-1.52-.52-2.14-.9-.66-.4-1.32-.88-1.92-1.34-.3-.23-.71-.21-.89-.14-.98.35-2.06.67-3.27.6-1.08-.07-2.15-.36-3.19-.64-.39-.1-.77-.21-1.15-.3-1.63-.38-3.28-.62-4.76-.68-1.81-.08-3.13-.11-4.87.16-.5.08-1.4.45-1.79.74-.2.15-.62.64-.7,1.05l-.19.98c-.33,1.66-.59,2.98-.83,4.75l-.28,2c-.33,2.28-.64,4.43-.76,6.69-.02.35.15,1.2,1.52,2.92.91,1.14,2.06,2.07,3.28,3.05l.51.41c.5.41.97.59,1.18.54.19-.02.48-.22.58-.4.1-.19.13-.59.06-.85-.06-.22-.23-.44-.31-.48-.48-.19-1.02-.38-1.54-.57l-.51-.18c-.74-.26-1.35-.92-1.49-1.6-.15-.74.26-1.61.92-1.98,4.34-4,6.05-5.18,10.55-8.31,1.42-.99,3.14-2.18,5.32-3.72,2.5-1.77,4.16-1.12,7.16,1.14.68.67,1.43,1.57,1.07,2.5-.39,1-1.76,1.18-3.04,1.23-.88,0-1.29.05-1.48.09.13.2.41.54.65.82.29.35.64.77,1.01,1.26,1.2,1.6,2.38,3.9,2.11,5.56-.26,1.56-1.81,4.3-2.08,4.68-.11.15-1.1,1.53-.53,2.12,3.24,3.39,6,6.49,9.24,10.38l.26.32c.5.61,1.01,1.24,1.58,1.57.44.26,1.14.39,1.71.34.47-.05,1.03-.32,1.42-.71.3-.28.47-.72.46-1.16-.01-.08-.17-.32-.26-.46-.09-.14-.18-.28-.26-.42-.19-.35-.23-.77-.11-1.14.1-.3.34-.7.93-.99,2.71-1.3,4.76-2.35,6.86-3.48.7-.38,1.52-.48,2.3-.58.54-.07,1.04-.13,1.42-.27.52-.19.94-.48,1.17-.8.29-.4.48-.96.47-1.35,0-.4-.26-.98-.58-1.35-1.52-1.77-3.26-3.55-5.48-5.61M23.44,11.77c-4.55,3.16-6.3,4.38-10.65,8.38-.23.16-.44.34-.62.54.13-2,.41-3.97.71-6.04l.28-2.01c.24-1.73.49-3.03.81-4.62l.03-.68c.17-.11.65-.31.83-.35.91-.14,1.68-.18,2.53-.18.58,0,1.2.02,1.91.05,1.35.06,2.86.28,4.36.62l1.08.28c1.05.28,2.24.6,3.49.7-1.91,1.35-3.45,2.42-4.75,3.32M58.72,30.72c-.9.12-2.02.26-3.08.83-2.24,1.22-4.3,2.25-6.76,3.43-1.01.48-1.75,1.3-2.07,2.29-.22.68-.23,1.4-.05,2.08-.22-.23-.49-.56-.69-.81l-.28-.33c-3.04-3.65-5.66-6.61-8.64-9.76,0,0,.01-.01.02-.02.3-.4,2.14-3.51,2.49-5.63.38-2.29-.87-4.76-1.86-6.28,1-.34,2-.98,2.49-2.24.4-1.01.5-2.56-1.09-4.37.11-.03.22-.06.34-.1.18-.05.35-.11.51-.18.02.08.04.16.06.24.15.58.34,1.32.7,2.06.52,1.05,1.3,2.05,2.35,2.99l2.95,2.62c2.8,2.49,5.62,5,8.38,7.56,2.16,2,3.85,3.73,5.16,5.43-.15.06-.62.12-.94.16"/>
    </g>
  </g>
</svg>